<svg xmlns="http://www.w3.org/2000/svg" viewBox="0 0 800 600" width="800" height="600">
  <!-- Memaze default win celebration. Intro: burst + wordmark pop in over ~0.55s,
       rating stars land at 0.85s / 1.0s / 1.15s; then everything loops (bob, rays, twinkles, confetti). -->
  <defs>
    <rect id="w-c0" x="-6" y="-13" width="12" height="26" rx="2.5" fill="currentColor" stroke="#1d1a3a" stroke-width="3"/>
    <circle id="w-c1" r="8" fill="currentColor" stroke="#1d1a3a" stroke-width="3"/>
    <path id="w-sq" d="M-12,-4q6,-9 12,0t12,0"/>
    <g id="w-c2" fill="none" stroke-linecap="round"><use href="#w-sq" stroke="#1d1a3a" stroke-width="11"/><use href="#w-sq" stroke="currentColor" stroke-width="5.5"/></g>
    <radialGradient id="w-ray" gradientUnits="userSpaceOnUse" cx="0" cy="0" r="370">
      <stop offset="0" stop-color="#fffbe0" stop-opacity=".95"/>
      <stop offset=".3" stop-color="#ffe46b" stop-opacity=".7"/>
      <stop offset="1" stop-color="#ffb800" stop-opacity="0"/>
    </radialGradient>
    <radialGradient id="w-ray2" gradientUnits="userSpaceOnUse" cx="0" cy="0" r="330">
      <stop offset="0" stop-color="#ffffff" stop-opacity=".8"/>
      <stop offset=".4" stop-color="#ff8fd0" stop-opacity=".45"/>
      <stop offset="1" stop-color="#ff4f9a" stop-opacity="0"/>
    </radialGradient>
    <radialGradient id="w-glow" gradientUnits="userSpaceOnUse" cx="0" cy="0" r="230">
      <stop offset="0" stop-color="#fff" stop-opacity=".9"/>
      <stop offset=".5" stop-color="#fff6c4" stop-opacity=".45"/>
      <stop offset="1" stop-color="#fff6c4" stop-opacity="0"/>
    </radialGradient>
    <linearGradient id="w-gold" x1="0" y1="0" x2="0" y2="1">
      <stop offset="0" stop-color="#fff79a"/>
      <stop offset=".45" stop-color="#ffd23f"/>
      <stop offset="1" stop-color="#ff8a1a"/>
    </linearGradient>
    <linearGradient id="w-star" x1="0" y1="0" x2="0" y2="1">
      <stop offset="0" stop-color="#fff38a"/>
      <stop offset="1" stop-color="#ffb21a"/>
    </linearGradient>
  </defs>
  <g transform="translate(400 262)">
    <g transform="scale(0)">
      <animateTransform attributeName="transform" type="scale" values="0;1.12;1" keyTimes="0;.7;1" dur=".5s" fill="freeze"/>
      <g>
        <animateTransform attributeName="transform" type="rotate" from="0" to="360" dur="24s" repeatCount="indefinite"/>
        <path d="M0,0L379,-33L379,33ZM0,0L367,98L344,161ZM0,0L311,218L269,269ZM0,0L218,311L161,344ZM0,0L98,367L33,379ZM0,0L-33,379L-98,367ZM0,0L-161,344L-218,311ZM0,0L-269,269L-311,218ZM0,0L-344,161L-367,98ZM0,0L-379,33L-379,-33ZM0,0L-367,-98L-344,-161ZM0,0L-311,-218L-269,-269ZM0,0L-218,-311L-161,-344ZM0,0L-98,-367L-33,-379ZM0,0L33,-379L98,-367ZM0,0L161,-344L218,-311ZM0,0L269,-269L311,-218ZM0,0L344,-161L367,-98Z" fill="url(#w-ray)"/>
      </g>
      <g>
        <animateTransform attributeName="transform" type="rotate" from="10" to="-350" dur="36s" repeatCount="indefinite"/>
        <path d="M0,0L340,-12L340,12ZM0,0L323,105L315,127ZM0,0L268,209L253,228ZM0,0L180,288L160,300ZM0,0L71,333L47,337ZM0,0L-47,337L-71,333ZM0,0L-160,300L-180,288ZM0,0L-253,228L-268,209ZM0,0L-315,127L-323,105ZM0,0L-340,12L-340,-12ZM0,0L-323,-105L-315,-127ZM0,0L-268,-209L-253,-228ZM0,0L-180,-288L-160,-300ZM0,0L-71,-333L-47,-337ZM0,0L47,-337L71,-333ZM0,0L160,-300L180,-288ZM0,0L253,-228L268,-209ZM0,0L315,-127L323,-105Z" fill="url(#w-ray2)"/>
      </g>
      <circle r="230" fill="url(#w-glow)"/>
    </g>
  </g>
  <g transform="translate(0 -40)">
    <g><animateMotion path="M30,0c19,110 -19,220 0,330s-19,220 0,330" dur="5.6s" begin=".86s" repeatCount="indefinite"/><use href="#w-c0" color="#ff4f9a"><animateTransform attributeName="transform" type="rotate" from="0" to="360" dur="1.2s" repeatCount="indefinite"/><animateTransform attributeName="transform" type="scale" values="1 1;1 .25;1 1" dur="0.5s" repeatCount="indefinite" additive="sum"/></use></g>
    <g><animateMotion path="M55,0c30,110 -30,220 0,330s-30,220 0,330" dur="5.8s" begin="1.36s" repeatCount="indefinite"/><use href="#w-c1" color="#ffd23f"><animateTransform attributeName="transform" type="rotate" from="0" to="360" dur="1.5s" repeatCount="indefinite"/></use></g>
    <g><animateMotion path="M100,0c-40,110 40,220 0,330s40,220 0,330" dur="5.3s" begin=".59s" repeatCount="indefinite"/><use href="#w-c2" color="#3ddc97"><animateTransform attributeName="transform" type="rotate" from="0" to="-360" dur="1.4s" repeatCount="indefinite"/></use></g>
    <g><animateMotion path="M113,0c-23,110 23,220 0,330s23,220 0,330" dur="5.2s" begin="1.17s" repeatCount="indefinite"/><use href="#w-c0" color="#4cc9ff"><animateTransform attributeName="transform" type="rotate" from="0" to="360" dur="0.9s" repeatCount="indefinite"/><animateTransform attributeName="transform" type="scale" values="1 1;1 .25;1 1" dur="0.7s" repeatCount="indefinite" additive="sum"/></use></g>
    <g><animateMotion path="M150,0c38,110 -38,220 0,330s-38,220 0,330" dur="3.7s" begin=".16s" repeatCount="indefinite"/><use href="#w-c1" color="#9b5cff"><animateTransform attributeName="transform" type="rotate" from="0" to="-360" dur="1.5s" repeatCount="indefinite"/></use></g>
    <g><animateMotion path="M190,0c-26,110 26,220 0,330s26,220 0,330" dur="4.0s" begin=".83s" repeatCount="indefinite"/><use href="#w-c2" color="#ff7b3a"><animateTransform attributeName="transform" type="rotate" from="0" to="360" dur="1.7s" repeatCount="indefinite"/></use></g>
    <g><animateMotion path="M205,0c28,110 -28,220 0,330s-28,220 0,330" dur="3.8s" begin="1.22s" repeatCount="indefinite"/><use href="#w-c0" color="#ff4f9a"><animateTransform attributeName="transform" type="rotate" from="0" to="360" dur="1.4s" repeatCount="indefinite"/><animateTransform attributeName="transform" type="scale" values="1 1;1 .25;1 1" dur="0.6s" repeatCount="indefinite" additive="sum"/></use></g>
    <g><animateMotion path="M232,0c-23,110 23,220 0,330s23,220 0,330" dur="5.6s" begin=".82s" repeatCount="indefinite"/><use href="#w-c1" color="#ffd23f"><animateTransform attributeName="transform" type="rotate" from="0" to="-360" dur="1.0s" repeatCount="indefinite"/></use></g>
    <g><animateMotion path="M255,0c-32,110 32,220 0,330s32,220 0,330" dur="5.1s" begin="1.06s" repeatCount="indefinite"/><use href="#w-c2" color="#3ddc97"><animateTransform attributeName="transform" type="rotate" from="0" to="360" dur="1.9s" repeatCount="indefinite"/></use></g>
    <g><animateMotion path="M293,0c31,110 -31,220 0,330s-31,220 0,330" dur="4.4s" begin=".89s" repeatCount="indefinite"/><use href="#w-c0" color="#4cc9ff"><animateTransform attributeName="transform" type="rotate" from="0" to="-360" dur="1.7s" repeatCount="indefinite"/><animateTransform attributeName="transform" type="scale" values="1 1;1 .25;1 1" dur="1.0s" repeatCount="indefinite" additive="sum"/></use></g>
    <g><animateMotion path="M321,0c-43,110 43,220 0,330s43,220 0,330" dur="5.5s" begin=".29s" repeatCount="indefinite"/><use href="#w-c1" color="#9b5cff"><animateTransform attributeName="transform" type="rotate" from="0" to="360" dur="1.1s" repeatCount="indefinite"/></use></g>
    <g><animateMotion path="M343,0c23,110 -23,220 0,330s-23,220 0,330" dur="4.1s" begin="1.16s" repeatCount="indefinite"/><use href="#w-c2" color="#ff7b3a"><animateTransform attributeName="transform" type="rotate" from="0" to="360" dur="1.7s" repeatCount="indefinite"/></use></g>
    <g><animateMotion path="M381,0c-41,110 41,220 0,330s41,220 0,330" dur="4.2s" begin=".49s" repeatCount="indefinite"/><use href="#w-c0" color="#ff4f9a"><animateTransform attributeName="transform" type="rotate" from="0" to="-360" dur="1.6s" repeatCount="indefinite"/><animateTransform attributeName="transform" type="scale" values="1 1;1 .25;1 1" dur="0.8s" repeatCount="indefinite" additive="sum"/></use></g>
    <g><animateMotion path="M410,0c-21,110 21,220 0,330s21,220 0,330" dur="4.0s" begin=".73s" repeatCount="indefinite"/><use href="#w-c1" color="#ffd23f"><animateTransform attributeName="transform" type="rotate" from="0" to="-360" dur="1.4s" repeatCount="indefinite"/></use></g>
    <g><animateMotion path="M446,0c-36,110 36,220 0,330s36,220 0,330" dur="5.5s" begin="1.08s" repeatCount="indefinite"/><use href="#w-c2" color="#3ddc97"><animateTransform attributeName="transform" type="rotate" from="0" to="360" dur="0.9s" repeatCount="indefinite"/></use></g>
    <g><animateMotion path="M475,0c19,110 -19,220 0,330s-19,220 0,330" dur="5.4s" begin=".79s" repeatCount="indefinite"/><use href="#w-c0" color="#4cc9ff"><animateTransform attributeName="transform" type="rotate" from="0" to="360" dur="1.3s" repeatCount="indefinite"/><animateTransform attributeName="transform" type="scale" values="1 1;1 .25;1 1" dur="1.0s" repeatCount="indefinite" additive="sum"/></use></g>
    <g><animateMotion path="M508,0c39,110 -39,220 0,330s-39,220 0,330" dur="3.9s" begin=".39s" repeatCount="indefinite"/><use href="#w-c1" color="#9b5cff"><animateTransform attributeName="transform" type="rotate" from="0" to="360" dur="1.9s" repeatCount="indefinite"/></use></g>
    <g><animateMotion path="M516,0c24,110 -24,220 0,330s-24,220 0,330" dur="5.5s" begin=".33s" repeatCount="indefinite"/><use href="#w-c2" color="#ff7b3a"><animateTransform attributeName="transform" type="rotate" from="0" to="360" dur="1.8s" repeatCount="indefinite"/></use></g>
    <g><animateMotion path="M560,0c-19,110 19,220 0,330s19,220 0,330" dur="4.7s" begin=".52s" repeatCount="indefinite"/><use href="#w-c0" color="#ff4f9a"><animateTransform attributeName="transform" type="rotate" from="0" to="-360" dur="1.0s" repeatCount="indefinite"/><animateTransform attributeName="transform" type="scale" values="1 1;1 .25;1 1" dur="0.9s" repeatCount="indefinite" additive="sum"/></use></g>
    <g><animateMotion path="M576,0c23,110 -23,220 0,330s-23,220 0,330" dur="4.3s" begin=".69s" repeatCount="indefinite"/><use href="#w-c1" color="#ffd23f"><animateTransform attributeName="transform" type="rotate" from="0" to="360" dur="1.4s" repeatCount="indefinite"/></use></g>
    <g><animateMotion path="M612,0c24,110 -24,220 0,330s-24,220 0,330" dur="4.7s" begin=".08s" repeatCount="indefinite"/><use href="#w-c2" color="#3ddc97"><animateTransform attributeName="transform" type="rotate" from="0" to="-360" dur="1.0s" repeatCount="indefinite"/></use></g>
    <g><animateMotion path="M649,0c-42,110 42,220 0,330s42,220 0,330" dur="5.2s" begin=".60s" repeatCount="indefinite"/><use href="#w-c0" color="#4cc9ff"><animateTransform attributeName="transform" type="rotate" from="0" to="-360" dur="1.5s" repeatCount="indefinite"/><animateTransform attributeName="transform" type="scale" values="1 1;1 .25;1 1" dur="0.6s" repeatCount="indefinite" additive="sum"/></use></g>
    <g><animateMotion path="M680,0c-25,110 25,220 0,330s25,220 0,330" dur="4.3s" begin=".90s" repeatCount="indefinite"/><use href="#w-c1" color="#9b5cff"><animateTransform attributeName="transform" type="rotate" from="0" to="-360" dur="1.6s" repeatCount="indefinite"/></use></g>
    <g><animateMotion path="M696,0c34,110 -34,220 0,330s-34,220 0,330" dur="3.4s" begin="1.10s" repeatCount="indefinite"/><use href="#w-c2" color="#ff7b3a"><animateTransform attributeName="transform" type="rotate" from="0" to="360" dur="1.4s" repeatCount="indefinite"/></use></g>
    <g><animateMotion path="M725,0c19,110 -19,220 0,330s-19,220 0,330" dur="3.9s" begin="1.34s" repeatCount="indefinite"/><use href="#w-c0" color="#ff4f9a"><animateTransform attributeName="transform" type="rotate" from="0" to="-360" dur="1.4s" repeatCount="indefinite"/><animateTransform attributeName="transform" type="scale" values="1 1;1 .25;1 1" dur="0.5s" repeatCount="indefinite" additive="sum"/></use></g>
    <g><animateMotion path="M759,0c18,110 -18,220 0,330s-18,220 0,330" dur="5.6s" begin=".60s" repeatCount="indefinite"/><use href="#w-c1" color="#ffd23f"><animateTransform attributeName="transform" type="rotate" from="0" to="360" dur="1.1s" repeatCount="indefinite"/></use></g>
  </g>
  <g transform="translate(400 262)">
      <g transform="translate(-300 -170)"><g transform="scale(0)">
        <animateTransform attributeName="transform" type="scale" values="0;1;0" keyTimes="0;.5;1" dur="1.20s" begin="0s" repeatCount="indefinite"/>
        <path d="M0,-22Q0,0 22,0Q0,0 0,22Q0,0 -22,0Q0,0 0,-22Z" fill="#fffbd1" stroke="#1d1a3a" stroke-width="3" stroke-linejoin="round"/>
      </g></g>
      <g transform="translate(290 -190)"><g transform="scale(0)">
        <animateTransform attributeName="transform" type="scale" values="0;1;0" keyTimes="0;.5;1" dur="1.45s" begin="0.5s" repeatCount="indefinite"/>
        <path d="M0,-26Q0,0 26,0Q0,0 0,26Q0,0 -26,0Q0,0 0,-26Z" fill="#fffbd1" stroke="#1d1a3a" stroke-width="3" stroke-linejoin="round"/>
      </g></g>
      <g transform="translate(-330 60)"><g transform="scale(0)">
        <animateTransform attributeName="transform" type="scale" values="0;1;0" keyTimes="0;.5;1" dur="1.70s" begin="0.9s" repeatCount="indefinite"/>
        <path d="M0,-18Q0,0 18,0Q0,0 0,18Q0,0 -18,0Q0,0 0,-18Z" fill="#fffbd1" stroke="#1d1a3a" stroke-width="3" stroke-linejoin="round"/>
      </g></g>
      <g transform="translate(335 40)"><g transform="scale(0)">
        <animateTransform attributeName="transform" type="scale" values="0;1;0" keyTimes="0;.5;1" dur="1.20s" begin="0.3s" repeatCount="indefinite"/>
        <path d="M0,-20Q0,0 20,0Q0,0 0,20Q0,0 -20,0Q0,0 0,-20Z" fill="#fffbd1" stroke="#1d1a3a" stroke-width="3" stroke-linejoin="round"/>
      </g></g>
      <g transform="translate(-200 -225)"><g transform="scale(0)">
        <animateTransform attributeName="transform" type="scale" values="0;1;0" keyTimes="0;.5;1" dur="1.45s" begin="1.1s" repeatCount="indefinite"/>
        <path d="M0,-14Q0,0 14,0Q0,0 0,14Q0,0 -14,0Q0,0 0,-14Z" fill="#fffbd1" stroke="#1d1a3a" stroke-width="3" stroke-linejoin="round"/>
      </g></g>
      <g transform="translate(205 150)"><g transform="scale(0)">
        <animateTransform attributeName="transform" type="scale" values="0;1;0" keyTimes="0;.5;1" dur="1.70s" begin="0.7s" repeatCount="indefinite"/>
        <path d="M0,-16Q0,0 16,0Q0,0 0,16Q0,0 -16,0Q0,0 0,-16Z" fill="#fffbd1" stroke="#1d1a3a" stroke-width="3" stroke-linejoin="round"/>
      </g></g>
      <g transform="translate(-230 170)"><g transform="scale(0)">
        <animateTransform attributeName="transform" type="scale" values="0;1;0" keyTimes="0;.5;1" dur="1.20s" begin="1.3s" repeatCount="indefinite"/>
        <path d="M0,-22Q0,0 22,0Q0,0 0,22Q0,0 -22,0Q0,0 0,-22Z" fill="#fffbd1" stroke="#1d1a3a" stroke-width="3" stroke-linejoin="round"/>
      </g></g>
      <g transform="translate(120 -235)"><g transform="scale(0)">
        <animateTransform attributeName="transform" type="scale" values="0;1;0" keyTimes="0;.5;1" dur="1.45s" begin="0.2s" repeatCount="indefinite"/>
        <path d="M0,-15Q0,0 15,0Q0,0 0,15Q0,0 -15,0Q0,0 0,-15Z" fill="#fffbd1" stroke="#1d1a3a" stroke-width="3" stroke-linejoin="round"/>
      </g></g>
      <g transform="translate(-120 205)"><g transform="scale(0)">
        <animateTransform attributeName="transform" type="scale" values="0;1;0" keyTimes="0;.5;1" dur="1.70s" begin="0.6s" repeatCount="indefinite"/>
        <path d="M0,-13Q0,0 13,0Q0,0 0,13Q0,0 -13,0Q0,0 0,-13Z" fill="#fffbd1" stroke="#1d1a3a" stroke-width="3" stroke-linejoin="round"/>
      </g></g>
      <g transform="translate(-112 128) rotate(-12)"><g transform="scale(0)">
        <animateTransform attributeName="transform" type="scale" values="0;1.35;.9;1" keyTimes="0;.5;.8;1" dur=".4s" begin="0.45s" fill="freeze"/>
        <path d="M0,-38L11.2,-15.4L36.1,-11.7L18.1,5.9L22.3,30.7L0,19L-22.3,30.7L-18.1,5.9L-36.1,-11.7L-11.2,-15.4Z" fill="url(#w-star)" stroke="#1d1a3a" stroke-width="7" stroke-linejoin="round"/>
        <path d="M0,-19.8L5.8,-8L18.8,-6.1L9.4,3.1L11.6,16L0,9.9L-11.6,16L-9.4,3.1L-18.8,-6.1L-5.8,-8Z" transform="translate(-4.6 -5.3)" fill="#fff" opacity=".45"/>
      </g></g>
      <g transform="translate(0 146) rotate(0)"><g transform="scale(0)">
        <animateTransform attributeName="transform" type="scale" values="0;1.35;.9;1" keyTimes="0;.5;.8;1" dur=".4s" begin="0.6s" fill="freeze"/>
        <path d="M0,-46L13.5,-18.6L43.7,-14.2L21.9,7.1L27,37.2L0,23L-27,37.2L-21.9,7.1L-43.7,-14.2L-13.5,-18.6Z" fill="url(#w-star)" stroke="#1d1a3a" stroke-width="7" stroke-linejoin="round"/>
        <path d="M0,-23.9L7,-9.7L22.7,-7.4L11.4,3.7L14.1,19.4L0,12L-14.1,19.4L-11.4,3.7L-22.7,-7.4L-7,-9.7Z" transform="translate(-5.5 -6.4)" fill="#fff" opacity=".45"/>
      </g></g>
      <g transform="translate(112 128) rotate(12)"><g transform="scale(0)">
        <animateTransform attributeName="transform" type="scale" values="0;1.35;.9;1" keyTimes="0;.5;.8;1" dur=".4s" begin="0.75s" fill="freeze"/>
        <path d="M0,-38L11.2,-15.4L36.1,-11.7L18.1,5.9L22.3,30.7L0,19L-22.3,30.7L-18.1,5.9L-36.1,-11.7L-11.2,-15.4Z" fill="url(#w-star)" stroke="#1d1a3a" stroke-width="7" stroke-linejoin="round"/>
        <path d="M0,-19.8L5.8,-8L18.8,-6.1L9.4,3.1L11.6,16L0,9.9L-11.6,16L-9.4,3.1L-18.8,-6.1L-5.8,-8Z" transform="translate(-4.6 -5.3)" fill="#fff" opacity=".45"/>
      </g></g>
    <g>
      <animateTransform attributeName="transform" type="translate" values="0 0;0 -12;0 0" keyTimes="0;.5;1" calcMode="spline" keySplines=".45 0 .55 1;.45 0 .55 1" dur="1.8s" begin=".55s" repeatCount="indefinite"/>
      <g transform="scale(0)">
        <animateTransform attributeName="transform" type="scale" values="0;1.2;.92;1.05;1" keyTimes="0;.45;.68;.85;1" dur=".55s" fill="freeze"/>
        <g>
          <animateTransform attributeName="transform" type="rotate" values="-14;5;-2;0" keyTimes="0;.45;.75;1" dur=".55s" fill="freeze"/>
          <animateTransform attributeName="transform" type="rotate" values="0;2;0;-2;0" dur="3.6s" begin=".55s" repeatCount="indefinite" additive="sum"/>
      <g font-family="'Arial Black', 'Arial Rounded MT Bold', system-ui, sans-serif" font-weight="900" font-size="128" text-anchor="middle" stroke-linejoin="round">
        <text y="46" textLength="640" lengthAdjust="spacingAndGlyphs" transform="translate(0 11)" fill="#1d1a3a" stroke="#1d1a3a" stroke-width="30">YOU WIN!</text>
        <text y="46" textLength="640" lengthAdjust="spacingAndGlyphs" fill="#1d1a3a" stroke="#1d1a3a" stroke-width="30">YOU WIN!</text>
        <text y="46" textLength="640" lengthAdjust="spacingAndGlyphs" fill="#fff" stroke="#fff" stroke-width="13">YOU WIN!</text>
        <text y="46" textLength="640" lengthAdjust="spacingAndGlyphs" fill="url(#w-gold)" stroke="#1d1a3a" stroke-width="2.5" paint-order="stroke">YOU WIN!</text>
      </g>
        </g>
      </g>
    </g>
  </g>
</svg>
